<?xml version="1.0" encoding="utf-8"?>
<svg width="60" height="60" viewBox="0 0 60 60" fill="none" xmlns="http://www.w3.org/2000/svg">
  <g>
    <rect width="60" height="60" fill="#FFFFFF" fill-rule="evenodd" />
    <g transform="translate(11 11)">
      <path d="M11.2784 7.9375L8.78977 7.9375Q8.64773 6.97727 7.97159 6.42898Q7.29545 5.88068 6.28409 5.88068Q4.93182 5.88068 4.11648 6.87216Q3.30114 7.86364 3.30114 9.68182Q3.30114 11.5455 4.12216 12.5142Q4.94318 13.483 6.26705 13.483Q7.25 13.483 7.93182 12.9688Q8.61364 12.4545 8.78977 11.5227L11.2784 11.5341Q11.1477 12.6023 10.517 13.5455Q9.88636 14.4886 8.80398 15.0739Q7.72159 15.6591 6.22727 15.6591Q4.67045 15.6591 3.44602 14.9545Q2.22159 14.25 1.5142 12.9148Q0.806818 11.5795 0.806818 9.68182Q0.806818 7.77841 1.52273 6.44318Q2.23864 5.10795 3.46591 4.40625Q4.69318 3.70455 6.22727 3.70455Q7.57386 3.70455 8.65625 4.2017Q9.73864 4.69886 10.429 5.64489Q11.1193 6.59091 11.2784 7.9375ZM15.4886 15.6648Q14.2386 15.6648 13.4148 15.0114Q12.5909 14.358 12.5909 13.0625Q12.5909 12.0852 13.0511 11.5284Q13.5114 10.9716 14.2585 10.7131Q15.0057 10.4545 15.8693 10.375Q17.0057 10.2614 17.4943 10.1364Q17.983 10.0114 17.983 9.59091L17.983 9.55682Q17.983 9.01705 17.6449 8.72159Q17.3068 8.42614 16.6875 8.42614Q16.0341 8.42614 15.6477 8.71023Q15.2614 8.99432 15.1364 9.43182L12.8977 9.25Q13.1477 8.05682 14.1392 7.35795Q15.1307 6.65909 16.6989 6.65909Q17.6705 6.65909 18.517 6.96591Q19.3636 7.27273 19.8835 7.9233Q20.4034 8.57386 20.4034 9.61364L20.4034 15.5L18.108 15.5L18.108 14.2898L18.0398 14.2898Q17.7216 14.8977 17.0881 15.2812Q16.4545 15.6648 15.4886 15.6648ZM16.1818 13.9943Q16.9773 13.9943 17.4886 13.5312Q18 13.0682 18 12.3807L18 11.4545Q17.858 11.5511 17.5597 11.625Q17.2614 11.6989 16.9233 11.7528Q16.5852 11.8068 16.3182 11.8466Q15.6818 11.9375 15.2926 12.2045Q14.9034 12.4716 14.9034 12.983Q14.9034 13.483 15.2642 13.7386Q15.625 13.9943 16.1818 13.9943ZM22.2841 15.5L22.2841 6.77273L24.6307 6.77273L24.6307 8.29545L24.7216 8.29545Q24.9602 7.48295 25.5227 7.06534Q26.0852 6.64773 26.8182 6.64773Q27.2216 6.64773 27.5795 6.73295L27.5795 8.88068Q27.4091 8.82386 27.108 8.78693Q26.8068 8.75 26.5568 8.75Q25.7557 8.75 25.2301 9.25284Q24.7045 9.75568 24.7045 10.5625L24.7045 15.5L22.2841 15.5ZM31.6307 15.642Q30.6364 15.642 29.8352 15.1278Q29.0341 14.6136 28.5625 13.6108Q28.0909 12.608 28.0909 11.1477Q28.0909 9.64773 28.5767 8.65057Q29.0625 7.65341 29.8665 7.15625Q30.6705 6.65909 31.625 6.65909Q32.358 6.65909 32.8494 6.90625Q33.3409 7.15341 33.6449 7.51705Q33.9489 7.88068 34.108 8.23864L34.1818 8.23864L34.1818 3.86364L36.5966 3.86364L36.5966 15.5L34.2102 15.5L34.2102 14.1023L34.108 14.1023Q33.9432 14.4659 33.6307 14.821Q33.3182 15.1761 32.8267 15.4091Q32.3352 15.642 31.6307 15.642ZM32.3977 13.7159Q33.2727 13.7159 33.7528 13.0085Q34.233 12.3011 34.233 11.1364Q34.233 9.96591 33.7557 9.27557Q33.2784 8.58523 32.3977 8.58523Q31.5 8.58523 31.0312 9.29261Q30.5625 10 30.5625 11.1364Q30.5625 12.2784 31.0341 12.9972Q31.5057 13.7159 32.3977 13.7159Z" fill="#000000" />
      <path d="M5.13636 15.5L1.01136 15.5L1.01136 3.86364L5.17045 3.86364Q6.92614 3.86364 8.19602 4.55966Q9.46591 5.25568 10.1477 6.55682Q10.8295 7.85795 10.8295 9.67045Q10.8295 11.4886 10.1449 12.7955Q9.46023 14.1023 8.18466 14.8011Q6.90909 15.5 5.13636 15.5ZM3.47159 13.392L5.03409 13.392Q6.67614 13.392 7.52557 12.5057Q8.375 11.6193 8.375 9.67045Q8.375 7.73295 7.52557 6.85227Q6.67614 5.97159 5.03977 5.97159L3.47159 5.97159L3.47159 13.392ZM14 15.5L11.3636 15.5L15.3807 3.86364L18.5511 3.86364L22.5625 15.5L19.9261 15.5L19.0625 12.8466L14.8636 12.8466L14 15.5ZM15.4886 10.9261L18.4432 10.9261L17.0114 6.52273L16.9205 6.52273L15.4886 10.9261ZM24.6193 3.86364L27.4318 12.7045L27.5398 12.7045L30.358 3.86364L33.0852 3.86364L29.0739 15.5L25.9034 15.5L21.8864 3.86364L24.6193 3.86364Z" transform="translate(2.071 19.364)" fill="#000000" />
    </g>
  </g>
</svg>